<?xml version="1.0" encoding="utf-8"?>
<!-- Generated by IcoMoon.io -->
<!DOCTYPE svg PUBLIC "-//W3C//DTD SVG 1.1//EN" "http://www.w3.org/Graphics/SVG/1.1/DTD/svg11.dtd">
<svg version="1.1" xmlns="http://www.w3.org/2000/svg" xmlns:xlink="http://www.w3.org/1999/xlink" width="56" height="56" viewBox="0 0 56 56">
<g id="icomoon-ignore">
</g>
<path d="M2 30.562l10.563-8.469 15.438 9.531-10.688 8.906zM2 13.656l15.313-9.969 10.688 8.906-15.438 9.5zM12.719 42.812v-3.375l4.594 3 10.688-8.875v-0.063l0.031 0.031 0.031-0.031v0.063l10.719 8.875 4.594-3v3.375l-15.313 9.156v0.031l-0.031-0.031-0.031 0.031v-0.031zM28 31.625l15.438-9.531 10.563 8.469-15.281 9.969zM28 12.594l10.719-8.906 15.281 9.969-10.563 8.438z" fill="#2a2a2a"></path>
</svg>
