<?xml version="1.0" encoding="utf-8"?>
<!-- Generated by IcoMoon.io -->
<!DOCTYPE svg PUBLIC "-//W3C//DTD SVG 1.1//EN" "http://www.w3.org/Graphics/SVG/1.1/DTD/svg11.dtd">
<svg version="1.1" xmlns="http://www.w3.org/2000/svg" xmlns:xlink="http://www.w3.org/1999/xlink" width="56" height="56" viewBox="0 0 56 56">
<g id="icomoon-ignore">
</g>
<path d="M0 46v-4q0-0.812 0.594-1.406t1.406-0.594h44q0.812 0 1.406 0.594t0.594 1.406v4q0 0.812-0.594 1.406t-1.406 0.594h-44q-0.812 0-1.406-0.594t-0.594-1.406zM0 30v-4q0-0.812 0.594-1.406t1.406-0.594h44q0.812 0 1.406 0.594t0.594 1.406v4q0 0.812-0.594 1.406t-1.406 0.594h-44q-0.812 0-1.406-0.594t-0.594-1.406zM0 14v-4q0-0.812 0.594-1.406t1.406-0.594h44q0.812 0 1.406 0.594t0.594 1.406v4q0 0.812-0.594 1.406t-1.406 0.594h-44q-0.812 0-1.406-0.594t-0.594-1.406z" fill="#2a2a2a"></path>
</svg>
