<?xml version="1.0" encoding="utf-8"?>
<!-- Generated by IcoMoon.io -->
<!DOCTYPE svg PUBLIC "-//W3C//DTD SVG 1.1//EN" "http://www.w3.org/Graphics/SVG/1.1/DTD/svg11.dtd">
<svg version="1.1" xmlns="http://www.w3.org/2000/svg" xmlns:xlink="http://www.w3.org/1999/xlink" width="52" height="56" viewBox="0 0 52 56">
<g id="icomoon-ignore">
</g>
<path d="M0 10q0-0.812 0.594-1.406t1.406-0.594h8q0.5 0 0.891 0.203t0.625 0.484 0.406 0.766 0.234 0.828 0.172 0.922 0.141 0.797h37.531q0.812 0 1.406 0.594t0.594 1.406v16q0 0.75-0.5 1.328t-1.281 0.672l-32.625 3.812q0.031 0.219 0.141 0.672t0.188 0.828 0.078 0.687q0 0.5-0.75 2h28.75q0.812 0 1.406 0.594t0.594 1.406-0.594 1.406-1.406 0.594h-32q-0.812 0-1.406-0.594t-0.594-1.406q0-0.438 0.344-1.234t0.922-1.859 0.641-1.187l-5.531-25.719h-6.375q-0.812 0-1.406-0.594t-0.594-1.406zM12 48q0-1.656 1.172-2.828t2.828-1.172 2.828 1.172 1.172 2.828-1.172 2.828-2.828 1.172-2.828-1.172-1.172-2.828zM40 48q0-1.656 1.172-2.828t2.828-1.172 2.828 1.172 1.172 2.828-1.172 2.828-2.828 1.172-2.828-1.172-1.172-2.828z" fill="#2a2a2a"></path>
</svg>
